<svg width="35" height="35" viewBox="0 0 35 35" fill="none" xmlns="http://www.w3.org/2000/svg">
<path d="M34.9514 1.5893L34.8475 0.152383L33.4051 0.0488706C27.9732 -0.340664 22.6486 1.63595 18.7974 5.47253L14.3134 9.93957L12.8643 9.77688C10.8187 9.54732 8.71042 9.78383 6.76751 10.4611C4.82453 11.1383 3.02812 12.2628 1.57247 13.7129L0 15.2795L19.6628 34.8678L21.2354 33.3013C22.6909 31.8512 23.8197 30.0616 24.4995 28.126C25.1794 26.1904 25.4168 24.0901 25.1863 22.0523L25.023 20.6087L29.507 16.1417C33.3582 12.3051 35.3426 7.00097 34.9514 1.5893ZM32.9265 2.06607C33.0706 4.81876 32.5255 7.53059 31.378 9.97621L24.9864 3.60875C27.4414 2.46562 30.1636 1.92259 32.9265 2.06607ZM2.90021 15.2795L3.02265 15.1575C5.51988 12.6697 8.94954 11.4485 12.4564 11.7895L5.92669 18.2945L2.90021 15.2795ZM19.7853 31.8567L19.6628 31.9786L16.6363 28.9637L23.166 22.4588C23.5083 25.9526 22.2825 29.3688 19.7853 31.8567ZM15.1862 27.519L7.3768 19.7391L20.2475 6.91714C21.1236 6.04437 22.086 5.28082 23.113 4.63169L30.3512 11.8425C29.6996 12.8656 28.9331 13.8244 28.057 14.6971L15.1862 27.519Z" fill="#BD9C79"/>
<path d="M0.297729 26.8352L3.98449 23.1624L5.43439 24.6068L1.74763 28.2796L0.297729 26.8352Z" fill="#BD9C79"/>
<path d="M6.6062 33.1211L10.293 29.4483L11.7429 30.8927L8.0561 34.5655L6.6062 33.1211Z" fill="#BD9C79"/>
<path d="M1.63062 31.7922L7.1387 26.305L8.5886 27.7494L3.08052 33.2366L1.63062 31.7922Z" fill="#BD9C79"/>
<path d="M18.973 11.2951C17.7382 12.5253 17.7382 14.5269 18.973 15.7571C19.5904 16.3722 20.4014 16.6797 21.2125 16.6797C22.0235 16.6797 22.8346 16.3722 23.4521 15.7571C24.6869 14.5269 24.6869 12.5253 23.4521 11.295C22.2171 10.0649 20.2079 10.0649 18.973 11.2951ZM22.0019 14.3125C21.5666 14.7461 20.8584 14.7462 20.4231 14.3125C19.9879 13.8788 19.9879 13.1733 20.4231 12.7397C20.6408 12.5229 20.9267 12.4145 21.2125 12.4145C21.4984 12.4145 21.7843 12.5229 22.0019 12.7396C22.4373 13.1733 22.4373 13.8789 22.0019 14.3125Z" fill="#BD9C79"/>
</svg>
