<svg width="40" height="40" viewBox="0 0 40 40" fill="none" xmlns="http://www.w3.org/2000/svg">
<g clip-path="url(#clip0)">
<path d="M32.2694 19.0829C32.2694 12.343 26.7653 6.85962 19.9997 6.85962C13.2342 6.85962 7.7301 12.343 7.7301 19.0829C7.7301 23.2161 9.84839 27.0792 13.3021 29.3257V33.1766C13.3021 36.8556 16.3066 39.8486 19.9996 39.8486C23.6926 39.8486 26.697 36.8555 26.697 33.1766V31.0137C26.697 31.0132 26.6969 29.3259 26.6969 29.3259C30.1511 27.0793 32.2694 23.2162 32.2694 19.0829ZM24.3319 33.1767C24.3319 35.5564 22.3885 37.4923 19.9997 37.4923C17.611 37.4923 15.6676 35.5563 15.6676 33.1767V32.1918H24.3319V33.1767ZM24.9254 27.6451C24.5582 27.8552 24.3319 28.2449 24.3319 28.6668V29.8355H21.1823V23.7431C22.7179 23.2454 23.8314 21.8066 23.8314 20.1129C23.8314 19.4622 23.3018 18.9347 22.6487 18.9347C21.9956 18.9347 21.4661 19.4622 21.4661 20.1129C21.4661 20.9183 20.8082 21.5737 19.9997 21.5737C19.1912 21.5737 18.5333 20.9184 18.5333 20.1129C18.5333 19.4622 18.0038 18.9347 17.3507 18.9347C16.6975 18.9347 16.168 19.4622 16.168 20.1129C16.168 21.8065 17.2814 23.2454 18.8171 23.7431V29.8355H15.6678V28.6667C15.6678 28.2449 15.4414 27.8552 15.0743 27.6451C12.0032 25.8875 10.0956 22.6067 10.0956 19.0829C10.0956 13.6423 14.5386 9.21598 20 9.21598C25.4613 9.21598 29.9044 13.6422 29.9044 19.0829C29.9042 22.6067 27.9964 25.8876 24.9254 27.6451Z" fill="#BD9C79"/>
<path d="M19.9999 0C19.3468 0 18.8173 0.527527 18.8173 1.17818V3.24649C18.8173 3.89714 19.3468 4.42467 19.9999 4.42467C20.653 4.42467 21.1826 3.89714 21.1826 3.24649V1.17818C21.1826 0.527527 20.6531 0 19.9999 0Z" fill="#BD9C79"/>
<path d="M16.6733 3.54854L15.9392 1.61371C15.7083 1.00508 15.0256 0.698203 14.4149 0.928189C13.8039 1.15825 13.4958 1.83817 13.7267 2.44679L14.4607 4.38162C14.6396 4.85311 15.0895 5.14357 15.5672 5.14357C15.7061 5.14357 15.8475 5.11898 15.9852 5.06714C16.5961 4.83708 16.9042 4.15717 16.6733 3.54854Z" fill="#BD9C79"/>
<path d="M25.5851 0.928486C24.9741 0.698345 24.2917 1.00546 24.0607 1.61408L23.3267 3.54892C23.0958 4.15746 23.4039 4.83738 24.0149 5.06744C24.1525 5.11928 24.2939 5.14387 24.4328 5.14387C24.9106 5.14387 25.3604 4.85341 25.5392 4.38192L26.2733 2.44709C26.5042 1.83839 26.1961 1.15855 25.5851 0.928486Z" fill="#BD9C79"/>
</g>
<defs>
<clipPath id="clip0">
<rect width="40" height="39.8485" fill="white"/>
</clipPath>
</defs>
</svg>
