<svg width="36" height="40" viewBox="0 0 36 40" fill="none" xmlns="http://www.w3.org/2000/svg">
<path d="M34.995 9.57422C35.3459 9.77712 34.9944 9.57383 34.995 9.57422V9.57422Z" fill="#BD9C79"/>
<path d="M34.995 9.57439C34.9944 9.574 34.9938 9.57376 34.9932 9.57338C34.9927 9.57314 34.9923 9.57283 34.9918 9.5726L18.5852 0.155045C18.2384 -0.0440419 17.7964 -0.0572728 17.4289 0.147729C17.4243 0.15022 17.4196 0.152399 17.4151 0.155045L1.00838 9.5726C1.00792 9.57283 1.00752 9.57314 1.00706 9.57338C1.00643 9.57376 1.00581 9.574 1.00518 9.57439C0.653618 9.77775 0.421509 10.1619 0.421509 10.5841V29.2636C0.421509 29.68 0.653306 30.0762 1.0176 30.2804L17.4131 39.6915C17.4133 39.6916 17.4135 39.6917 17.4137 39.6919C17.4139 39.692 17.4142 39.6921 17.4144 39.6923L17.4151 39.6927C17.7679 39.8941 18.2033 39.9026 18.5668 39.7024C18.5729 39.6991 18.5792 39.6961 18.5852 39.6927L18.5859 39.6923C18.5861 39.6921 18.5864 39.6921 18.5866 39.6919C18.5868 39.6918 18.587 39.6917 18.5872 39.6915L34.9829 30.2803C34.9858 30.2786 34.9887 30.277 34.9916 30.2754L34.9919 30.2752C34.9923 30.275 34.9927 30.2747 34.9931 30.2745C35.3529 30.0678 35.5743 29.685 35.5783 29.2766C35.5784 29.2722 35.5788 29.268 35.5788 29.2637V10.5842C35.5787 10.1603 35.3459 9.77729 34.995 9.57439ZM19.1721 3.18664L32.0521 10.5799L26.5155 13.7317C24.8128 11.4142 22.1816 9.81488 19.1721 9.48185V3.18664ZM26.2035 19.9238C26.2035 21.3972 25.8099 22.7809 25.1221 23.9759C25.1217 23.9764 25.1214 23.9769 25.121 23.9774C25.1206 23.9782 25.1203 23.9791 25.1199 23.9798C23.8889 26.1159 21.7173 27.6479 19.1721 28.0123V20.6013L25.6312 16.9243C26.0004 17.8535 26.2035 18.8654 26.2035 19.9238ZM16.8282 3.18664V9.48185C13.8187 9.8148 11.1874 11.4142 9.48479 13.7317L3.94815 10.5799L16.8282 3.18664ZM2.76542 12.5959L8.3187 15.7571C7.76229 17.0353 7.45307 18.4442 7.45307 19.9238C7.45307 21.4034 7.76229 22.8123 8.3187 24.0904L2.76542 27.2517V12.5959ZM16.8282 36.661L3.94815 29.2677L9.48479 26.1159C11.1874 28.4335 13.8187 30.0328 16.8282 30.3658V36.661ZM16.8282 28.0124C14.283 27.6481 12.1114 26.1159 10.8804 23.9799C10.8799 23.9791 10.8796 23.9783 10.8792 23.9776C10.8789 23.977 10.8785 23.9766 10.8782 23.976C10.1905 22.781 9.79682 21.3974 9.79682 19.9239C9.79682 18.8656 9.99987 17.8535 10.3691 16.9245L16.8282 20.6014V28.0124ZM18.0001 18.5791L11.5352 14.8989C13.0378 12.9845 15.3771 11.7516 18.0001 11.7516C20.6231 11.7516 22.9623 12.9845 24.465 14.8989L18.0001 18.5791ZM19.1721 36.6609V30.3657C22.1816 30.0328 24.8128 28.4334 26.5155 26.1159L32.0521 29.2676L19.1721 36.6609ZM33.2349 27.2518L27.6816 24.0904C28.238 22.8123 28.5472 21.4034 28.5472 19.9238C28.5472 18.4442 28.238 17.0353 27.6816 15.7571L33.2349 12.5959V27.2518Z" fill="#BD9C79"/>
</svg>
