<svg width="40" height="40" viewBox="0 0 40 40" fill="none" xmlns="http://www.w3.org/2000/svg">
<path d="M38.8281 28.8281H37.4219V26.25C37.4219 25.6028 36.8972 25.0781 36.25 25.0781C35.6028 25.0781 35.0781 25.6028 35.0781 26.25V28.8281H31.1719V1.17188C31.1719 0.524687 30.6472 0 30 0H10C9.35281 0 8.82812 0.524687 8.82812 1.17188V28.8281H4.92188V26.25C4.92188 25.6028 4.39719 25.0781 3.75 25.0781C3.10281 25.0781 2.57812 25.6028 2.57812 26.25V28.8281H1.17188C0.524687 28.8281 0 29.3528 0 30V38.8281C0 39.4753 0.524687 40 1.17188 40H38.8281C39.4753 40 40 39.4753 40 38.8281V30C40 29.3528 39.4753 28.8281 38.8281 28.8281ZM2.34375 31.1719H8.82812V37.6562H2.34375V31.1719ZM16.7969 37.6562V34.9219H23.2031V37.6562H16.7969ZM25.5469 37.6562V33.75C25.5469 33.1028 25.0222 32.5781 24.375 32.5781H15.625C14.9778 32.5781 14.4531 33.1028 14.4531 33.75V37.6562H11.1719V2.34375H28.8281V37.6562H25.5469ZM37.6562 37.6562H31.1719V31.1719H37.6562V37.6562Z" fill="#BD9C79"/>
<path d="M25 5.07812H15C14.3528 5.07812 13.8281 5.60281 13.8281 6.25C13.8281 6.89719 14.3528 7.42188 15 7.42188H25C25.6472 7.42188 26.1719 6.89719 26.1719 6.25C26.1719 5.60281 25.6472 5.07812 25 5.07812Z" fill="#BD9C79"/>
<path d="M16.875 10.0781H15.625C14.9778 10.0781 14.4531 10.6028 14.4531 11.25C14.4531 11.8972 14.9778 12.4219 15.625 12.4219H16.875C17.5222 12.4219 18.0469 11.8972 18.0469 11.25C18.0469 10.6028 17.5222 10.0781 16.875 10.0781Z" fill="#BD9C79"/>
<path d="M24.375 10.0781H23.125C22.4778 10.0781 21.9531 10.6028 21.9531 11.25C21.9531 11.8972 22.4778 12.4219 23.125 12.4219H24.375C25.0222 12.4219 25.5469 11.8972 25.5469 11.25C25.5469 10.6028 25.0222 10.0781 24.375 10.0781Z" fill="#BD9C79"/>
<path d="M16.875 15.0781H15.625C14.9778 15.0781 14.4531 15.6028 14.4531 16.25C14.4531 16.8972 14.9778 17.4219 15.625 17.4219H16.875C17.5222 17.4219 18.0469 16.8972 18.0469 16.25C18.0469 15.6028 17.5222 15.0781 16.875 15.0781Z" fill="#BD9C79"/>
<path d="M24.375 15.0781H23.125C22.4778 15.0781 21.9531 15.6028 21.9531 16.25C21.9531 16.8972 22.4778 17.4219 23.125 17.4219H24.375C25.0222 17.4219 25.5469 16.8972 25.5469 16.25C25.5469 15.6028 25.0222 15.0781 24.375 15.0781Z" fill="#BD9C79"/>
<path d="M16.875 20.0781H15.625C14.9778 20.0781 14.4531 20.6028 14.4531 21.25C14.4531 21.8972 14.9778 22.4219 15.625 22.4219H16.875C17.5222 22.4219 18.0469 21.8972 18.0469 21.25C18.0469 20.6028 17.5222 20.0781 16.875 20.0781Z" fill="#BD9C79"/>
<path d="M24.375 20.0781H23.125C22.4778 20.0781 21.9531 20.6028 21.9531 21.25C21.9531 21.8972 22.4778 22.4219 23.125 22.4219H24.375C25.0222 22.4219 25.5469 21.8972 25.5469 21.25C25.5469 20.6028 25.0222 20.0781 24.375 20.0781Z" fill="#BD9C79"/>
<path d="M16.875 25.0781H15.625C14.9778 25.0781 14.4531 25.6028 14.4531 26.25C14.4531 26.8972 14.9778 27.4219 15.625 27.4219H16.875C17.5222 27.4219 18.0469 26.8972 18.0469 26.25C18.0469 25.6028 17.5222 25.0781 16.875 25.0781Z" fill="#BD9C79"/>
<path d="M24.375 25.0781H23.125C22.4778 25.0781 21.9531 25.6028 21.9531 26.25C21.9531 26.8972 22.4778 27.4219 23.125 27.4219H24.375C25.0222 27.4219 25.5469 26.8972 25.5469 26.25C25.5469 25.6028 25.0222 25.0781 24.375 25.0781Z" fill="#BD9C79"/>
</svg>
