<svg width="35" height="35" viewBox="0 0 35 35" fill="none" xmlns="http://www.w3.org/2000/svg">
<path d="M34.6993 27.4494C34.1764 26.9266 25.3078 18.058 24.7502 17.5005L34.0899 8.16075C35.2914 6.95921 35.2979 5.01829 34.0947 3.81523L31.1845 0.905187C29.9879 -0.291439 28.04 -0.290756 26.8425 0.906827L17.4997 10.2498C17.2861 10.0363 8.36339 1.11355 7.55067 0.300824C7.15029 -0.0996236 6.50101 -0.0996236 6.10057 0.300824L0.300087 6.10123C-0.100361 6.50168 -0.100361 7.15088 0.300087 7.55133L10.2491 17.5004L3.26872 24.4808C3.1562 24.5934 3.0713 24.7306 3.02099 24.8816L0.0523533 33.6507C-0.0704881 34.0192 0.0254198 34.4254 0.300087 34.7C0.575164 34.975 0.981491 35.0704 1.3494 34.9477L10.1184 31.9791C10.2694 31.9288 10.4067 31.844 10.5192 31.7314L17.4997 24.751L27.4487 34.7C27.8488 35.1002 28.4985 35.1004 28.8988 34.7L34.6993 28.8995C35.0998 28.4991 35.0998 27.8499 34.6993 27.4494ZM28.2926 2.35693C28.6905 1.95908 29.3372 1.95819 29.7344 2.35536L32.6447 5.26547C33.0445 5.6653 33.0415 6.30891 32.6398 6.71065L31.1896 8.16089L26.8392 3.81052L26.8392 3.81045L28.2926 2.35693ZM25.3891 5.26055L29.7395 9.61099L28.2894 11.0611L23.939 6.71072L23.939 6.71065L25.3891 5.26055ZM2.47527 6.82631L6.82565 2.47594L9.72586 5.37621L9.00084 6.1013C8.60039 6.50175 8.60039 7.15095 9.00084 7.5514C9.40122 7.95185 10.0505 7.95185 10.4509 7.5514L11.176 6.82631L12.6261 8.27649L11.901 9.0015C11.5006 9.40195 11.5006 10.0512 11.901 10.4516C12.3014 10.8521 12.9507 10.8521 13.3511 10.4516L14.0762 9.72652L16.0495 11.6998L11.6992 16.0502L2.47527 6.82631ZM22.4888 8.16075L22.4888 8.16082L23.939 9.61092L6.89394 26.656L5.44384 25.2059C6.01375 24.636 21.6512 8.99836 22.4888 8.16075ZM2.64645 32.3537L4.4419 27.1041C4.75252 27.4147 7.26903 29.9312 7.89602 30.5582L2.64645 32.3537ZM9.79422 29.5563L8.34411 28.1062L25.3891 11.0611L26.8393 12.5113C26.4354 12.9151 9.98104 29.3694 9.79422 29.5563ZM28.1738 32.5248L18.9498 23.3009L23.3001 18.9505L25.2735 20.9239L24.5485 21.649C24.1481 22.0494 24.1481 22.6986 24.5485 23.0991C24.9489 23.4995 25.5982 23.4995 25.9986 23.0991L26.7236 22.374L28.1738 23.8241L27.4488 24.5492C27.0483 24.9497 27.0483 25.5989 27.4488 25.9993C27.8492 26.3998 28.4984 26.3998 28.8989 25.9993L29.6239 25.2743L32.5242 28.1745L28.1738 32.5248Z" fill="#BD9C79"/>
</svg>
