<svg width="17" height="16" viewBox="0 0 17 16" fill="none" xmlns="http://www.w3.org/2000/svg">
<g clip-path="url(#clip0)">
<path d="M13.8009 2.34316C12.2891 0.832156 10.2791 0 8.14107 0C6.00305 0 3.9931 0.832156 2.48128 2.34316C0.969522 3.85416 0.136932 5.86312 0.136932 8C0.136932 10.1369 0.969522 12.1458 2.48131 13.6569C3.9931 15.1678 6.00311 16 8.1411 16C9.46741 16 10.7815 15.6689 11.9412 15.0426C12.1751 14.9162 12.2623 14.6242 12.1359 14.3903C12.0095 14.1565 11.7174 14.0694 11.4833 14.1958C10.4638 14.7464 9.30805 15.0374 8.1411 15.0374C4.25861 15.0374 1.09996 11.8805 1.09996 8C1.09996 4.11953 4.25861 0.962563 8.14107 0.962563C12.0236 0.962563 15.1822 4.11956 15.1822 8C15.1822 8.91841 14.959 10.0111 14.7586 10.4175C14.581 10.7778 14.0777 11.2852 13.5149 11.2852C12.7864 11.2852 12.1937 10.6929 12.1937 9.96478V4.89012C12.1937 4.62434 11.9781 4.40884 11.7122 4.40884C11.4463 4.40884 11.2306 4.62431 11.2306 4.89012V5.38188C10.4867 4.50622 9.3778 3.94947 8.14107 3.94947C5.90647 3.94947 4.08843 5.76653 4.08843 8C4.08843 10.2334 5.9064 12.0505 8.14107 12.0505C9.41798 12.0505 10.5586 11.4571 11.302 10.5317C11.5549 11.5172 12.4511 12.2478 13.5148 12.2478C14.4438 12.2478 15.2783 11.541 15.6225 10.8429C15.9156 10.2484 16.1452 8.99969 16.1452 8.00003C16.1452 5.86313 15.3126 3.85416 13.8009 2.34316ZM8.14107 11.088C6.43749 11.088 5.05149 9.70272 5.05149 8C5.05149 6.29728 6.43746 4.91203 8.14107 4.91203C9.84467 4.91203 11.2306 6.29728 11.2306 8C11.2306 9.70272 9.84467 11.088 8.14107 11.088Z" fill="white"/>
</g>
<defs>
<clipPath id="clip0">
<rect width="16.0083" height="16" fill="white" transform="translate(0.135925)"/>
</clipPath>
</defs>
</svg>
