<svg width="11" height="11" viewBox="0 0 11 11" fill="none" xmlns="http://www.w3.org/2000/svg">
<path d="M5.28177 2.80469C3.78177 2.80469 2.58646 4.02344 2.58646 5.5C2.58646 7 3.78177 8.19531 5.28177 8.19531C6.75834 8.19531 7.97709 7 7.97709 5.5C7.97709 4.02344 6.75834 2.80469 5.28177 2.80469ZM5.28177 7.25781C4.32084 7.25781 3.52396 6.48438 3.52396 5.5C3.52396 4.53906 4.2974 3.76562 5.28177 3.76562C6.24271 3.76562 7.01615 4.53906 7.01615 5.5C7.01615 6.48438 6.24271 7.25781 5.28177 7.25781ZM8.70365 2.71094C8.70365 2.35938 8.4224 2.07812 8.07084 2.07812C7.71927 2.07812 7.43802 2.35938 7.43802 2.71094C7.43802 3.0625 7.71927 3.34375 8.07084 3.34375C8.4224 3.34375 8.70365 3.0625 8.70365 2.71094ZM10.4849 3.34375C10.438 2.5 10.2505 1.75 9.64115 1.14062C9.03177 0.53125 8.28177 0.34375 7.43802 0.296875C6.57084 0.25 3.96927 0.25 3.10209 0.296875C2.25834 0.34375 1.53177 0.53125 0.89896 1.14062C0.289585 1.75 0.102085 2.5 0.0552101 3.34375C0.00833511 4.21094 0.00833511 6.8125 0.0552101 7.67969C0.102085 8.52344 0.289585 9.25 0.89896 9.88281C1.53177 10.4922 2.25834 10.6797 3.10209 10.7266C3.96927 10.7734 6.57084 10.7734 7.43802 10.7266C8.28177 10.6797 9.03177 10.4922 9.64115 9.88281C10.2505 9.25 10.438 8.52344 10.4849 7.67969C10.5318 6.8125 10.5318 4.21094 10.4849 3.34375ZM9.3599 8.59375C9.19584 9.0625 8.82084 9.41406 8.37552 9.60156C7.6724 9.88281 6.03177 9.8125 5.28177 9.8125C4.50834 9.8125 2.86771 9.88281 2.18802 9.60156C1.71927 9.41406 1.36771 9.0625 1.18021 8.59375C0.89896 7.91406 0.969273 6.27344 0.969273 5.5C0.969273 4.75 0.89896 3.10938 1.18021 2.40625C1.36771 1.96094 1.71927 1.60938 2.18802 1.42188C2.86771 1.14062 4.50834 1.21094 5.28177 1.21094C6.03177 1.21094 7.6724 1.14062 8.37552 1.42188C8.82084 1.58594 9.1724 1.96094 9.3599 2.40625C9.64115 3.10938 9.57084 4.75 9.57084 5.5C9.57084 6.27344 9.64115 7.91406 9.3599 8.59375Z" fill="white"/>
</svg>
