<svg width="40" height="40" viewBox="0 0 40 40" fill="none" xmlns="http://www.w3.org/2000/svg">
<g clip-path="url(#clip0)">
<path d="M5.83308 6.65479C4.45237 6.65479 3.33307 7.77409 3.33307 9.15479V15.8215H4.99972V9.15479C4.99972 8.69456 5.37284 8.32143 5.83308 8.32143H25.8332V6.65479H5.83308Z" fill="#BD9C79"/>
<path d="M5.83308 31.6545C5.37284 31.6545 4.99972 31.2814 4.99972 30.8212V22.4878H3.33307V30.8212C3.33307 32.2019 4.45237 33.3212 5.83308 33.3212H14.1665V31.6545H5.83308Z" fill="#BD9C79"/>
<path d="M26.4224 33.8037L6.18401 13.5653C5.85862 13.24 5.33111 13.24 5.00564 13.5653L0.243985 18.327C-0.0813284 18.6524 -0.0813284 19.1799 0.243985 19.5054L20.4824 39.7437C20.6387 39.9001 20.8506 39.9879 21.0716 39.9879C21.2926 39.9878 21.5045 39.9 21.6607 39.7437L26.4224 34.9821C26.7478 34.6566 26.7478 34.1291 26.4224 33.8037ZM21.0716 37.9762L2.01149 18.9162L5.59487 15.3328L24.6549 34.3929L21.0716 37.9762Z" fill="#BD9C79"/>
<path d="M36.6666 31.6548H24.1665V33.3214H33.3332V37.4881C33.3332 37.9483 33.7063 38.3215 34.1665 38.3215H36.6666C38.5075 38.3215 39.9999 36.8291 39.9999 34.9881C39.9999 33.1471 38.5075 31.6548 36.6666 31.6548ZM36.6666 36.6548H34.9999V33.3214H36.6666C37.587 33.3214 38.3332 34.0676 38.3332 34.9881C38.3332 35.9086 37.587 36.6548 36.6666 36.6548Z" fill="#BD9C79"/>
<path d="M36.6666 6.65479H32.4999V8.32143H36.6666C37.5871 8.32143 38.3332 9.06761 38.3332 9.98808V34.9882H39.9999V9.98808C40 8.14713 38.5075 6.65479 36.6666 6.65479Z" fill="#BD9C79"/>
<path d="M15.2445 23.5652L12.7443 26.0654L13.9227 27.2439L16.423 24.7437L15.2445 23.5652Z" fill="#BD9C79"/>
<path d="M11.9109 20.2317L9.41071 22.7319L10.5892 23.9104L13.0894 21.4102L11.9109 20.2317Z" fill="#BD9C79"/>
<path d="M18.576 26.8987L16.0758 29.3989L17.2543 30.5774L19.7545 28.0772L18.576 26.8987Z" fill="#BD9C79"/>
<path d="M21.9106 30.2337L19.4104 32.7339L20.5889 33.9124L23.0891 31.4122L21.9106 30.2337Z" fill="#BD9C79"/>
<path d="M8.57553 16.8982L6.07532 19.3984L7.2538 20.5769L9.75402 18.0767L8.57553 16.8982Z" fill="#BD9C79"/>
<path d="M35.9449 1.86153L34.7932 0.709886C33.8187 -0.220352 32.2851 -0.220352 31.3107 0.709886L18.639 13.3816C18.3137 13.707 18.3137 14.2345 18.639 14.5599L22.0949 18.0158C22.2507 18.1727 22.4629 18.2606 22.684 18.26C22.905 18.2599 23.1169 18.1721 23.2732 18.0158L35.9449 5.34404C35.9453 5.34365 35.9457 5.34326 35.9461 5.34287C36.9071 4.38123 36.9066 2.82255 35.9449 1.86153ZM34.7674 4.1649L22.684 16.2482L20.4065 13.9707L32.4899 1.88817C32.8046 1.58747 33.3002 1.58747 33.6149 1.88817L34.7674 3.03904C34.7675 3.03919 34.7676 3.03927 34.7678 3.03943C35.0784 3.35029 35.0783 3.85419 34.7674 4.1649Z" fill="#BD9C79"/>
<path d="M22.4165 16.6362L18.8198 17.8371L20.0207 14.2345L18.4373 13.707L16.7089 18.8912C16.6807 18.9762 16.6662 19.0652 16.6662 19.1547C16.6663 19.615 17.0395 19.988 17.4997 19.9878C17.5879 19.9882 17.6757 19.9746 17.7597 19.9478L22.9439 18.2195L22.4165 16.6362Z" fill="#BD9C79"/>
<path d="M30.1845 3.01243L29.006 4.19092L32.462 7.64688L33.6405 6.46839L30.1845 3.01243Z" fill="#BD9C79"/>
<path d="M29.9999 18.3213H17.4999V19.9879H29.9999V18.3213Z" fill="#BD9C79"/>
<path d="M33.3332 18.3213H31.6666V19.9879H33.3332V18.3213Z" fill="#BD9C79"/>
<path d="M36.6666 18.3213H34.9999V19.9879H36.6666V18.3213Z" fill="#BD9C79"/>
</g>
<defs>
<clipPath id="clip0">
<rect width="40" height="40" fill="white"/>
</clipPath>
</defs>
</svg>
