<svg width="40" height="40" viewBox="0 0 40 40" fill="none" xmlns="http://www.w3.org/2000/svg">
<g clip-path="url(#clip0)">
<path d="M39.1666 16.6664H36.8716C36.8258 16.5506 36.7783 16.4356 36.7266 16.3198L38.3508 14.6964C38.6761 14.3711 38.6761 13.8436 38.3508 13.5181L34.8149 9.98223C34.4895 9.65691 33.962 9.65691 33.6365 9.98223L32.0132 11.6064C31.8973 11.5555 31.7823 11.5072 31.6665 11.4605V9.16637C31.6665 8.70613 31.2934 8.33301 30.8332 8.33301H25.8332C25.373 8.33301 24.9998 8.70613 24.9998 9.16637V11.4605C24.884 11.5071 24.769 11.5555 24.6532 11.6064L23.0298 9.98223C22.7044 9.65691 22.1769 9.65691 21.8515 9.98223L18.3156 13.5181C17.9903 13.8435 17.9903 14.371 18.3156 14.6964L19.9398 16.3198C19.8881 16.4357 19.8406 16.5507 19.7948 16.6664H17.5C17.0398 16.6664 16.6666 17.0396 16.6666 17.4998V22.4998C16.6666 22.96 17.0398 23.3332 17.5 23.3332H19.795C19.8408 23.449 19.8883 23.564 19.94 23.6798L18.3158 25.3032C17.9905 25.6286 17.9905 26.1561 18.3158 26.4815L21.8517 30.0174C22.1771 30.3427 22.7046 30.3427 23.0301 30.0174L24.6534 28.3932C24.7693 28.4441 24.8843 28.4924 25.0001 28.5391V30.8332C25.0001 31.2935 25.3732 31.6666 25.8334 31.6666H30.8334C31.2937 31.6666 31.6668 31.2935 31.6668 30.8332V28.5391C31.7826 28.4925 31.8976 28.4441 32.0134 28.3932L33.6368 30.0174C33.9622 30.3427 34.4897 30.3427 34.8151 30.0174L38.351 26.4815C38.6763 26.1561 38.6763 25.6286 38.351 25.3032L36.7269 23.6798C36.7785 23.5639 36.826 23.4489 36.8719 23.3332H39.1669C39.6271 23.3332 40.0002 22.96 40.0002 22.4998V17.4998C40 17.0396 39.6269 16.6664 39.1666 16.6664ZM38.3333 21.6664H36.285C35.921 21.6664 35.5992 21.9026 35.49 22.2498C35.3562 22.6688 35.1861 23.0753 34.9816 23.4648C34.813 23.7875 34.8734 24.1823 35.1308 24.4398L36.5833 25.8923L34.2258 28.2498L32.7742 26.7964C32.5167 26.5391 32.1219 26.4786 31.7992 26.6473C31.4098 26.8523 31.0029 27.0224 30.5833 27.1557C30.2362 27.2649 30 27.5867 30 27.9507V29.9998H26.6666L26.6675 27.9514C26.6675 27.5875 26.4313 27.2657 26.0841 27.1564C25.6647 27.0232 25.2578 26.8531 24.8683 26.6481C24.5456 26.4795 24.1508 26.5399 23.8933 26.7972L22.4408 28.2498L20.0833 25.8923L21.5367 24.4398C21.794 24.1823 21.8545 23.7875 21.6858 23.4648C21.4814 23.0753 21.3113 22.6688 21.1775 22.2498C21.0683 21.9026 20.7465 21.6664 20.3825 21.6664H18.3333V18.3331H20.3817C20.7457 18.3331 21.0675 18.0969 21.1767 17.7497C21.3105 17.3307 21.4806 16.9242 21.6851 16.5347C21.8537 16.2121 21.7933 15.8172 21.5359 15.5597L20.0834 14.1072L22.4409 11.7497L23.8926 13.2031C24.1501 13.4604 24.5449 13.5208 24.8676 13.3522C25.257 13.1472 25.6639 12.9771 26.0834 12.8439C26.4306 12.7346 26.6668 12.4129 26.6668 12.0489V9.9998H29.9993V12.0482C29.9993 12.4121 30.2355 12.7339 30.5826 12.8432C31.0021 12.9764 31.409 13.1465 31.7985 13.3515C32.1212 13.5201 32.516 13.4597 32.7735 13.2024L34.226 11.7499L36.5835 14.1074L35.1301 15.5599C34.8728 15.8174 34.8123 16.2122 34.981 16.5349C35.1855 16.9243 35.3555 17.3309 35.4894 17.7499C35.5986 18.0971 35.9204 18.3332 36.2844 18.3332H38.3335V21.6664H38.3333Z" fill="#BD9C79"/>
<path d="M28.3334 15.8335C26.0322 15.8335 24.1667 17.699 24.1667 20.0001C24.1667 22.3013 26.0322 24.1668 28.3334 24.1668C30.6334 24.164 32.4973 22.3002 32.5 20.0001C32.5 17.699 30.6346 15.8335 28.3334 15.8335ZM28.3334 22.5001C26.9527 22.5001 25.8334 21.3808 25.8334 20.0001C25.8334 18.6194 26.9527 17.5001 28.3334 17.5001C29.7141 17.5001 30.8334 18.6194 30.8334 20.0001C30.8334 21.3808 29.7141 22.5001 28.3334 22.5001Z" fill="#BD9C79"/>
<path d="M30 6.66664V4.16664C29.9973 1.86664 28.1334 0.00273437 25.8334 0H7.5C7.27898 7.8125e-05 7.06711 0.0878906 6.91086 0.244141L0.244141 6.91086C0.0878906 7.06711 0 7.27906 0 7.5V35.8334C0.00273437 38.1334 1.86664 39.9973 4.16664 40H25.8333C28.1334 39.9973 29.9972 38.1334 29.9999 35.8334V33.3334H28.3333V35.8334C28.3333 37.2141 27.214 38.3334 25.8333 38.3334H4.16664C2.78594 38.3334 1.66664 37.2141 1.66664 35.8334V7.845L7.845 1.66664H25.8334C27.2141 1.66664 28.3334 2.78594 28.3334 4.16664V6.66664H30Z" fill="#BD9C79"/>
<path d="M6.66663 0.833496V5.8335C6.66663 6.29373 6.2935 6.66686 5.83327 6.66686H4.16663V8.3335H5.83327C7.21397 8.3335 8.33327 7.2142 8.33327 5.8335V0.833496H6.66663Z" fill="#BD9C79"/>
<path d="M15 19.1665H7.5V20.8331H15V19.1665Z" fill="#BD9C79"/>
<path d="M5.83327 19.1665H4.16663V20.8331H5.83327V19.1665Z" fill="#BD9C79"/>
<path d="M15.8333 25H9.16663V26.6666H15.8333V25Z" fill="#BD9C79"/>
<path d="M7.50001 25H5.83337V26.6666H7.50001V25Z" fill="#BD9C79"/>
<path d="M15.8333 13.3335H9.16663V15.0001H15.8333V13.3335Z" fill="#BD9C79"/>
<path d="M7.50001 13.3335H5.83337V15.0001H7.50001V13.3335Z" fill="#BD9C79"/>
<path d="M5.83337 35C5.37314 35 5.00001 34.6269 5.00001 34.1666V32.5H3.33337V34.1666C3.33337 35.5473 4.45267 36.6666 5.83337 36.6666H7.50001V35H5.83337Z" fill="#BD9C79"/>
<path d="M10.8333 35H9.16663V36.6666H10.8333V35Z" fill="#BD9C79"/>
</g>
<defs>
<clipPath id="clip0">
<rect width="40" height="40" fill="white"/>
</clipPath>
</defs>
</svg>
