<svg width="40" height="40" viewBox="0 0 40 40" fill="none" xmlns="http://www.w3.org/2000/svg">
<g clip-path="url(#clip0)">
<path d="M38.4569 22.2987C38.6593 21.9177 38.5145 21.4447 38.1335 21.2422C33.756 18.916 28.4159 19.4739 24.6225 22.5911L23.3602 21.3288L25.4217 19.2674C25.7268 18.9623 25.7268 18.4676 25.4217 18.1624C25.1165 17.8574 24.622 17.8574 24.3168 18.1624L22.2553 20.2239L17.2256 15.1942C18.3696 13.6599 19.0894 11.8577 19.3163 9.93873C19.5778 7.72655 19.1616 5.51375 18.1126 3.53977C17.9102 3.15876 17.437 3.01407 17.0561 3.21649C16.6751 3.41899 16.5304 3.89196 16.7328 4.27297C18.4155 7.43937 18.1521 11.1992 16.1073 14.0759L12.7927 10.7613C12.3276 10.2962 11.6665 10.1033 11.0242 10.2447C10.3818 10.3864 9.86324 10.8396 9.63684 11.4572L0.119687 37.4205C-0.140234 38.1296 0.0299996 38.902 0.564138 39.436C0.932965 39.8049 1.41523 40.0002 1.91202 40.0002C2.13468 40.0002 2.36022 39.9609 2.57968 39.8805L28.5429 30.3633C29.1604 30.1369 29.6136 29.6183 29.7554 28.976C29.8969 28.3337 29.7039 27.6726 29.2388 27.2075L25.7341 23.7027C29.0351 21.0688 33.6274 20.617 37.4004 22.622C37.7813 22.8245 38.2543 22.6797 38.4569 22.2987ZM12.4434 34.6006L5.39959 27.5568L7.3513 22.2325L17.7677 32.6489L12.4434 34.6006ZM8.62567 36L4.00014 31.3745L4.80686 29.1738L10.8264 35.1933L8.62567 36ZM2.04187 38.4134C1.85671 38.4813 1.72882 38.391 1.6689 38.3312C1.60906 38.2714 1.51882 38.1434 1.58671 37.9583L3.40733 32.9915L7.00857 36.5928L2.04187 38.4134ZM28.2295 28.6395C28.2139 28.7104 28.1639 28.838 28.0052 28.8962L23.2023 30.6567L18.7588 26.2131C18.4538 25.908 17.9591 25.908 17.654 26.213C17.3489 26.5181 17.3488 27.0128 17.6539 27.3179L21.5853 31.2493L19.3846 32.0561L7.94403 20.6155L8.75075 18.4148L12.6822 22.3462C12.8347 22.4988 13.0347 22.575 13.2346 22.575C13.4346 22.575 13.6346 22.4987 13.7871 22.3462C14.0921 22.0411 14.0921 21.5464 13.787 21.2413L9.34348 16.7978L11.104 11.995C11.1622 11.8362 11.2898 11.7863 11.3607 11.7706C11.3823 11.7658 11.41 11.7618 11.4415 11.7618C11.5133 11.7618 11.6048 11.783 11.6879 11.8662L28.1339 28.3123C28.2535 28.4319 28.2451 28.5687 28.2295 28.6395Z" fill="#BD9C79"/>
<path d="M23.5623 6.23445C23.9937 6.23445 24.3435 5.88469 24.3435 5.4532C24.3435 4.79891 24.8759 4.26664 25.5301 4.26664C27.0459 4.26664 28.2792 3.03344 28.2792 1.51758C28.2792 1.08609 27.9294 0.736328 27.498 0.736328C27.0666 0.736328 26.7167 1.08609 26.7167 1.51758C26.7167 2.17187 26.1844 2.70414 25.5301 2.70414C24.0143 2.70414 22.781 3.93734 22.781 5.4532C22.781 5.88469 23.1308 6.23445 23.5623 6.23445Z" fill="#BD9C79"/>
<path d="M30.4937 13.6089C32.0592 13.6089 33.3329 12.3353 33.3329 10.7698C33.3329 10.0659 33.9055 9.49316 34.6095 9.49316C35.0409 9.49316 35.3908 9.1434 35.3908 8.71191C35.3908 8.28043 35.0409 7.93066 34.6095 7.93066C33.044 7.93066 31.7704 9.20434 31.7704 10.7698C31.7704 11.4737 31.1976 12.0464 30.4937 12.0464C30.0622 12.0464 29.7124 12.3962 29.7124 12.8277C29.7124 13.2592 30.0622 13.6089 30.4937 13.6089Z" fill="#BD9C79"/>
<path d="M35.0002 15.1162C35.0002 16.4947 36.1217 17.6162 37.5002 17.6162C38.8788 17.6162 40.0002 16.4947 40.0002 15.1162C40.0002 13.7377 38.8788 12.6162 37.5002 12.6162C36.1217 12.6162 35.0002 13.7377 35.0002 15.1162ZM37.5002 14.1787C38.0172 14.1787 38.4377 14.5993 38.4377 15.1162C38.4377 15.6332 38.0172 16.0537 37.5002 16.0537C36.9833 16.0537 36.5627 15.6332 36.5627 15.1162C36.5627 14.5993 36.9833 14.1787 37.5002 14.1787Z" fill="#BD9C79"/>
<path d="M24.6179 13.2695C25.9964 13.2695 27.1179 12.1481 27.1179 10.7695C27.1179 9.39102 25.9964 8.26953 24.6179 8.26953C23.2394 8.26953 22.1179 9.39102 22.1179 10.7695C22.1179 12.1481 23.2395 13.2695 24.6179 13.2695ZM24.6179 9.83203C25.1349 9.83203 25.5554 10.2526 25.5554 10.7695C25.5554 11.2865 25.1349 11.707 24.6179 11.707C24.101 11.707 23.6804 11.2865 23.6804 10.7695C23.6804 10.2526 24.101 9.83203 24.6179 9.83203Z" fill="#BD9C79"/>
<path d="M10.0002 5C11.3788 5 12.5002 3.87852 12.5002 2.5C12.5002 1.12148 11.3788 0 10.0002 0C8.62173 0 7.50024 1.12148 7.50024 2.5C7.50024 3.87852 8.62173 5 10.0002 5ZM10.0002 1.5625C10.5172 1.5625 10.9377 1.98305 10.9377 2.5C10.9377 3.01695 10.5172 3.4375 10.0002 3.4375C9.48329 3.4375 9.06274 3.01695 9.06274 2.5C9.06274 1.98305 9.48329 1.5625 10.0002 1.5625Z" fill="#BD9C79"/>
<path d="M35.3518 27.4266C35.0468 27.1215 34.5523 27.1215 34.2469 27.4265C33.9418 27.7316 33.9418 28.2263 34.2469 28.5313L34.9834 29.2679C35.136 29.4205 35.3359 29.4967 35.5359 29.4967C35.7358 29.4967 35.9357 29.4204 36.0883 29.2679C36.3933 28.9628 36.3933 28.4681 36.0883 28.163L35.3518 27.4266Z" fill="#BD9C79"/>
<path d="M39.0347 31.1092C38.7295 30.8041 38.235 30.8041 37.9297 31.1092C37.6247 31.4143 37.6247 31.9089 37.9297 32.2141L38.6663 32.9507C38.8189 33.1033 39.0188 33.1795 39.2187 33.1795C39.4186 33.1795 39.6186 33.1033 39.7711 32.9507C40.0762 32.6456 40.0762 32.1509 39.7711 31.8457L39.0347 31.1092Z" fill="#BD9C79"/>
<path d="M38.6663 27.4266L37.9297 28.1631C37.6247 28.4682 37.6247 28.9629 37.9297 29.268C38.0823 29.4206 38.2822 29.4968 38.4822 29.4968C38.6821 29.4968 38.8821 29.4205 39.0346 29.268L39.7711 28.5314C40.0762 28.2264 40.0762 27.7317 39.7711 27.4266C39.4661 27.1214 38.9714 27.1215 38.6663 27.4266Z" fill="#BD9C79"/>
<path d="M34.9834 31.1092L34.2469 31.8457C33.9418 32.1508 33.9418 32.6455 34.2469 32.9507C34.3995 33.1033 34.5994 33.1795 34.7993 33.1795C34.9993 33.1795 35.1991 33.1033 35.3517 32.9507L36.0883 32.2141C36.3933 31.909 36.3933 31.4143 36.0883 31.1092C35.7831 30.8041 35.2886 30.8041 34.9834 31.1092Z" fill="#BD9C79"/>
<path d="M38.4822 2.29904C38.6822 2.29904 38.8821 2.22279 39.0346 2.07021L39.7712 1.33365C40.0763 1.02857 40.0763 0.533887 39.7712 0.228809C39.4661 -0.0762695 38.9714 -0.0762695 38.6663 0.228809L37.9297 0.965371C37.6247 1.27045 37.6247 1.76514 37.9297 2.07021C38.0824 2.22279 38.2822 2.29904 38.4822 2.29904Z" fill="#BD9C79"/>
<path d="M34.7992 5.98174C34.9992 5.98174 35.1991 5.90549 35.3517 5.75291L36.0882 5.01635C36.3933 4.71127 36.3933 4.21658 36.0882 3.91143C35.7831 3.60635 35.2885 3.60635 34.9833 3.91143L34.2468 4.64799C33.9417 4.95307 33.9417 5.44775 34.2468 5.75291C34.3994 5.90549 34.5993 5.98174 34.7992 5.98174Z" fill="#BD9C79"/>
<path d="M39.0347 3.91191C38.7295 3.60684 38.235 3.60684 37.9297 3.91191C37.6247 4.21699 37.6247 4.71168 37.9297 5.01684L38.6663 5.7534C38.8189 5.90598 39.0188 5.98223 39.2187 5.98223C39.4186 5.98223 39.6186 5.90598 39.7711 5.7534C40.0762 5.44832 40.0762 4.95363 39.7711 4.64848L39.0347 3.91191Z" fill="#BD9C79"/>
<path d="M34.9834 2.07021C35.136 2.22279 35.3359 2.29904 35.5358 2.29904C35.7357 2.29904 35.9356 2.22279 36.0882 2.07021C36.3933 1.76514 36.3933 1.27045 36.0882 0.965371L35.3517 0.228809C35.0467 -0.0762695 34.5521 -0.0762695 34.2468 0.228809C33.9417 0.533887 33.9417 1.02857 34.2468 1.33365L34.9834 2.07021Z" fill="#BD9C79"/>
<path d="M15.7203 23.4985C15.5149 23.4985 15.3133 23.5821 15.168 23.7274C15.0227 23.8728 14.9391 24.0743 14.9391 24.2798C14.9391 24.4853 15.0227 24.6868 15.168 24.8321C15.3133 24.9774 15.5149 25.061 15.7203 25.061C15.9258 25.061 16.1274 24.9774 16.2727 24.8321C16.418 24.6868 16.5016 24.4853 16.5016 24.2798C16.5016 24.0743 16.418 23.8728 16.2727 23.7274C16.1274 23.5821 15.9258 23.4985 15.7203 23.4985Z" fill="#BD9C79"/>
<path d="M27.1185 15.3606L26.552 15.927C26.247 16.2321 26.247 16.7268 26.552 17.032C26.7046 17.1845 26.9045 17.2608 27.1045 17.2608C27.3044 17.2608 27.5043 17.1845 27.6569 17.032L28.2233 16.4656C28.5284 16.1605 28.5284 15.6658 28.2233 15.3606C27.9181 15.0556 27.4236 15.0556 27.1185 15.3606Z" fill="#BD9C79"/>
</g>
<defs>
<clipPath id="clip0">
<rect width="40" height="40" fill="white"/>
</clipPath>
</defs>
</svg>
