<svg width="40" height="40" viewBox="0 0 40 40" fill="none" xmlns="http://www.w3.org/2000/svg">
<g clip-path="url(#clip0)">
<path d="M39.4129 4.38398H27.6734L20.2958 0.0804688C20.1129 -0.0261719 19.887 -0.0261719 19.7041 0.0804688L12.3266 4.38398H0.587109C0.262891 4.38398 0 4.64687 0 4.97109V7.47602C0 7.80023 0.262891 8.06313 0.587109 8.06313H1.87867V32.525C1.87867 32.8492 2.14156 33.1121 2.46578 33.1121H19.413V38.8264H17.4952C17.1709 38.8264 16.908 39.0893 16.908 39.4135C16.908 39.7377 17.1709 40.0006 17.4952 40.0006H22.5049C22.8292 40.0006 23.092 39.7377 23.092 39.4135C23.092 39.0893 22.8292 38.8264 22.5049 38.8264H20.5871V33.1121H37.5343C37.8586 33.1121 38.1214 32.8492 38.1214 32.525V8.06305H39.413C39.7373 8.06305 40.0001 7.80016 40.0001 7.47594V4.97109C40 4.64687 39.7372 4.38398 39.4129 4.38398ZM20 1.26719L25.3431 4.38398H14.6569L20 1.26719ZM38.8259 6.88891H32.8376C32.5133 6.88891 32.2505 7.1518 32.2505 7.47602C32.2505 7.80023 32.5133 8.06313 32.8376 8.06313H36.9472V31.9379H3.05281V8.06305H30.1239C30.4482 8.06305 30.711 7.80016 30.711 7.47594C30.711 7.15172 30.4482 6.88883 30.1239 6.88883H1.17414V5.5582H38.8258V6.88891H38.8259Z" fill="#BD9C79"/>
<path d="M12.4854 9.39307C9.39933 9.39307 6.88855 11.9038 6.88855 14.9899C6.88855 18.076 9.39933 20.5868 12.4854 20.5868C15.5715 20.5868 18.0823 18.076 18.0823 14.9899C18.0823 11.9038 15.5715 9.39307 12.4854 9.39307ZM12.4854 19.4126C10.0468 19.4126 8.06269 17.4286 8.06269 14.9899C8.06269 12.5511 10.0468 10.5671 12.4854 10.5671C14.9241 10.5671 16.9082 12.5512 16.9082 14.9899C16.9082 17.4285 14.9241 19.4126 12.4854 19.4126Z" fill="#BD9C79"/>
<path d="M30.9258 25.9491L32.9776 23.8974C33.5728 23.3023 33.5728 22.3339 32.9776 21.7388C32.3893 21.1502 31.4073 21.1502 30.8189 21.7388L28.7672 23.7905L26.7154 21.7388C26.1271 21.1502 25.1451 21.1502 24.5567 21.7388C23.9615 22.3339 23.9615 23.3023 24.5567 23.8974L26.6085 25.9491L24.5567 28.0009C23.9615 28.596 23.9615 29.5644 24.5566 30.1595C25.1449 30.7479 26.1272 30.748 26.7154 30.1595L28.7672 28.1078L30.8188 30.1595C31.4071 30.7479 32.3894 30.748 32.9776 30.1595C33.5728 29.5644 33.5728 28.596 32.9776 28.0009L30.9258 25.9491ZM32.1626 29.3133C32.0301 29.4636 31.791 29.4713 31.6493 29.3294L29.1823 26.8624C28.9561 26.6363 28.5783 26.6363 28.352 26.8624L25.885 29.3295C25.7433 29.4713 25.5041 29.4635 25.3717 29.3132C25.2505 29.1758 25.2573 28.9608 25.3869 28.8313L27.8539 26.3643C28.0832 26.135 28.0832 25.7633 27.8539 25.5341L25.3869 23.0671C25.2574 22.9376 25.2505 22.7226 25.3717 22.5852C25.5042 22.4348 25.7433 22.4271 25.8851 22.569L28.352 25.0359C28.5814 25.2652 28.953 25.2652 29.1823 25.0359L31.6493 22.569C31.7911 22.4272 32.0301 22.4349 32.1626 22.5852C32.2837 22.7227 32.2769 22.9376 32.1474 23.0671L29.6805 25.5341C29.4512 25.7634 29.4512 26.1351 29.6805 26.3643L32.1474 28.8313C32.277 28.9609 32.2837 29.1758 32.1626 29.3133Z" fill="#BD9C79"/>
<path d="M33.5175 14.532L30.3864 12.0271C30.1333 11.8245 29.7639 11.8656 29.5613 12.1188C29.3587 12.3719 29.3998 12.7414 29.6529 12.944L31.4771 14.4033H23.7575C22.0525 14.4033 20.6655 15.7904 20.6655 17.4952V23.7575C20.6655 24.8149 19.8051 25.6753 18.7477 25.6753H7.47566C7.15144 25.6753 6.88855 25.9382 6.88855 26.2624C6.88855 26.5867 7.15144 26.8496 7.47566 26.8496H18.7477C20.4526 26.8496 21.8396 25.4624 21.8396 23.7576V17.4953C21.8396 16.4379 22.7 15.5775 23.7575 15.5775H31.4771L29.6528 17.0369C29.423 17.2208 29.3654 17.5581 29.5224 17.8074C29.7065 18.0999 30.1161 18.17 30.3864 17.9538L33.5175 15.4488C33.8067 15.2175 33.8067 14.7635 33.5175 14.532Z" fill="#BD9C79"/>
</g>
<defs>
<clipPath id="clip0">
<rect width="40" height="40" fill="white"/>
</clipPath>
</defs>
</svg>
