<svg width="17" height="16" viewBox="0 0 17 16" fill="none" xmlns="http://www.w3.org/2000/svg">
<g clip-path="url(#clip0)">
<path d="M15.5787 11.9944L13.265 9.6809C12.9542 9.37192 12.5381 9.20168 12.0935 9.20168C11.6308 9.20168 11.1939 9.38377 10.8636 9.71412L9.96295 10.6141C9.2631 10.2253 8.33291 9.69056 7.36717 8.72532C6.40255 7.76087 5.86746 6.83389 5.47647 6.13062L6.37798 5.23025C7.04823 4.55895 7.06194 3.48198 6.40864 2.82962L4.09537 0.517484C3.7855 0.206922 3.36942 0.0358887 2.92366 0.0358887C2.47129 0.0358887 2.04335 0.209967 1.71494 0.526817C1.51627 0.686731 0.519265 1.56639 0.147682 3.38051C-0.372574 5.91974 0.82277 8.36286 4.27358 11.8133C8.12841 15.6649 11.4193 15.9643 12.3361 15.9643C12.527 15.9643 12.6421 15.9525 12.6728 15.9489C14.4706 15.7383 15.1143 14.9403 15.5843 14.3577C16.1933 13.6025 16.1912 12.6089 15.5787 11.9944ZM14.811 13.7345C14.3692 14.2821 13.952 14.7993 12.5573 14.9628C12.5566 14.9628 12.4803 14.9714 12.3361 14.9714C11.5158 14.9714 8.56079 14.693 4.97601 11.1112C1.79375 7.92926 0.676813 5.74719 1.12085 3.57961C1.44495 1.99728 2.3054 1.32473 2.33884 1.29918L2.36851 1.27727L2.39453 1.25119C2.53817 1.10776 2.72605 1.02873 2.9236 1.02873C3.10346 1.02873 3.26982 1.09611 3.39246 1.21909L5.70627 3.53176C5.97249 3.79757 5.95832 4.24488 5.67508 4.52857L4.65556 5.5467L4.6388 5.56424C4.37311 5.85673 4.40437 6.25201 4.55072 6.50943C4.97303 7.27113 5.5515 8.31435 6.6646 9.42719C7.77398 10.536 8.81622 11.1137 9.57621 11.535C9.6523 11.5777 9.80938 11.6493 10.006 11.6493C10.2382 11.6493 10.4514 11.5511 10.6092 11.372L11.566 10.416C11.7088 10.2732 11.8961 10.1945 12.0934 10.1945C12.2736 10.1945 12.4409 10.262 12.5632 10.3837L14.8755 12.6957C15.1692 12.9903 15.0479 13.4407 14.811 13.7345Z" fill="white"/>
<path d="M9.72941 2.46839C10.5828 2.56655 11.5877 3.08323 12.2894 3.78464C12.9977 4.49254 13.5159 5.50709 13.6095 6.36934C13.6371 6.62371 13.8523 6.81221 14.1026 6.81221C14.1205 6.81221 14.1387 6.81122 14.1568 6.8093C14.4295 6.77972 14.6266 6.53481 14.597 6.26225C14.4787 5.1723 13.8636 3.95395 12.9919 3.08263C12.1283 2.21945 10.9218 1.60621 9.84298 1.4821C9.5706 1.45053 9.32418 1.64619 9.29279 1.91849C9.2614 2.19079 9.45683 2.43702 9.72941 2.46839Z" fill="white"/>
<path d="M9.26539 4.54795C9.72697 4.6011 10.3658 4.9433 10.7842 5.36155C11.2063 5.78345 11.5493 6.428 11.5999 6.89431C11.6275 7.14874 11.8427 7.33725 12.093 7.33725C12.1109 7.33725 12.129 7.33625 12.1471 7.33433C12.4198 7.30475 12.617 7.05985 12.5874 6.78728C12.501 5.99115 11.9722 5.14492 11.4865 4.65948C11.0052 4.17835 10.1668 3.65234 9.37896 3.5616C9.10618 3.52989 8.86009 3.72561 8.8287 3.99792C8.79738 4.27029 8.99287 4.51658 9.26539 4.54795Z" fill="white"/>
</g>
<defs>
<clipPath id="clip0">
<rect width="16.0083" height="16" fill="white" transform="translate(0.03125)"/>
</clipPath>
</defs>
</svg>
